HIERARCHY
ROOT joint_Root
{
	OFFSET 0.0 0.0 0.0
	CHANNELS 6 Xposition Yposition Zposition Zrotation Xrotation Yrotation 
	JOINT Hips
	{
		OFFSET 4.5925 91.4895 -427.239
		CHANNELS 6 Xposition Yposition Zposition Zrotation Xrotation Yrotation 
		JOINT Spine
		{
			OFFSET 15.7357 0.0 0.0
			CHANNELS 6 Xposition Yposition Zposition Zrotation Xrotation Yrotation 
			JOINT Chest
			{
				OFFSET 8.98455 -0.406207 0.0
				CHANNELS 6 Xposition Yposition Zposition Zrotation Xrotation Yrotation 
				JOINT Neck
				{
					OFFSET 16.3773 0.0 0.0
					CHANNELS 6 Xposition Yposition Zposition Zrotation Xrotation Yrotation 
					JOINT Head
					{
						OFFSET 6.45672 0.0 0.0
						CHANNELS 6 Xposition Yposition Zposition Zrotation Xrotation Yrotation 
						End Site
						{
							OFFSET 0.0 0.0 0.0
						}
					}
				}
				JOINT Shoulder_L
				{
					OFFSET 12.9942 -0.242716 4.98039
					CHANNELS 6 Xposition Yposition Zposition Zrotation Xrotation Yrotation 
					JOINT UpperArm_L
					{
						OFFSET 5.34809 0.0 0.0
						CHANNELS 6 Xposition Yposition Zposition Zrotation Xrotation Yrotation 
						JOINT LowerArm_L
						{
							OFFSET 24.3286 1.87007e-05 0.0
							CHANNELS 6 Xposition Yposition Zposition Zrotation Xrotation Yrotation 
							JOINT Hand_L
							{
								OFFSET 22.2916 0.0 0.0
								CHANNELS 6 Xposition Yposition Zposition Zrotation Xrotation Yrotation 
								End Site
								{
									OFFSET 0.0 0.0 0.0
								}
							}
						}
					}
				}
				JOINT Shoulder_R
				{
					OFFSET 12.9945 -0.242716 -4.98039
					CHANNELS 6 Xposition Yposition Zposition Zrotation Xrotation Yrotation 
					JOINT UpperArm_R
					{
						OFFSET -5.34813 0.0 0.0
						CHANNELS 6 Xposition Yposition Zposition Zrotation Xrotation Yrotation 
						JOINT LowerArm_R
						{
							OFFSET -24.3289 0.000322201 0.0
							CHANNELS 6 Xposition Yposition Zposition Zrotation Xrotation Yrotation 
							JOINT Hand_R
							{
								OFFSET -22.2915 -0.000108084 0.0
								CHANNELS 6 Xposition Yposition Zposition Zrotation Xrotation Yrotation 
								End Site
								{
									OFFSET 0.0 0.0 0.0
								}
							}
						}
					}
				}
			}
		}
		JOINT UpperLeg_L
		{
			OFFSET -2.19248 -6.46944 0.0
			CHANNELS 6 Xposition Yposition Zposition Zrotation Xrotation Yrotation 
			JOINT LowerLeg_L
			{
				OFFSET 39.0811 0.0 -1.23785e-05
				CHANNELS 6 Xposition Yposition Zposition Zrotation Xrotation Yrotation 
				JOINT Foot_L
				{
					OFFSET 40.9854 0.0 -1.26872e-05
					CHANNELS 6 Xposition Yposition Zposition Zrotation Xrotation Yrotation 
					JOINT Toes_L
					{
						OFFSET 11.7543 0.0 0.0
						CHANNELS 6 Xposition Yposition Zposition Zrotation Xrotation Yrotation 
						End Site
						{
							OFFSET 0.0 0.0 0.0
						}
					}
				}
			}
		}
		JOINT UpperLeg_R
		{
			OFFSET -2.19251 6.46944 0.0
			CHANNELS 6 Xposition Yposition Zposition Zrotation Xrotation Yrotation 
			JOINT LowerLeg_R
			{
				OFFSET -39.0811 -0.00228153 -0.0401928
				CHANNELS 6 Xposition Yposition Zposition Zrotation Xrotation Yrotation 
				JOINT Foot_R
				{
					OFFSET -40.9854 0.0 0.0
					CHANNELS 6 Xposition Yposition Zposition Zrotation Xrotation Yrotation 
					JOINT Toes_R
					{
						OFFSET -11.7543 0.0 0.0
						CHANNELS 6 Xposition Yposition Zposition Zrotation Xrotation Yrotation 
						End Site
						{
							OFFSET 0.0 0.0 0.0
						}
					}
				}
			}
		}
	}
}
MOTION
Frames:	4
Frame Time:	0.0333333
0.000000 0.000000 0.000000 0.000000 0.000000 -0.000000 -6.823430 84.633900 51.073000 -91.814000 2.743780 -178.562000 15.735700 0.000005 -0.000001 101.492000 82.473000 -103.930000 8.984550 -0.406207 -0.000000 7.062400 3.003750 -5.057850 16.377300 -0.000001 -0.000001 -2.002880 -5.656200 -0.266299 6.456720 -0.000001 -0.000000 -4.408230 -10.395200 4.487330 12.994200 -0.242716 4.980390 -92.069400 5.348020 -68.819800 5.348090 -0.000007 -0.000001 -68.812000 21.239300 -19.599900 24.328600 0.000019 0.000005 21.705000 0.465743 -88.843300 22.291600 -0.000001 0.000005 0.229502 5.518840 -7.325030 12.994500 -0.242716 -4.980390 88.119400 11.119500 -80.337400 -5.348130 -0.000001 -0.000004 -65.182300 27.966500 4.835930 -24.328900 0.000322 -0.000009 -10.833400 -6.944170 -57.706300 -22.291500 -0.000108 -0.000004 20.355000 5.669420 -17.295900 -2.192480 -6.469440 -0.000000 176.264000 -9.378100 -27.310800 39.081100 -0.000007 -0.000012 -0.109271 0.075915 55.212000 40.985400 -0.000006 -0.000013 5.124480 3.443560 -77.373300 11.754300 -0.000000 0.000003 -0.000146 -0.001417 -16.631500 -2.192510 6.469440 -0.000001 168.219000 7.030970 169.666000 -39.081100 -0.002282 -0.040193 0.362942 -0.105334 73.686100 -40.985400 0.000008 0.000006 3.859870 5.231750 -24.674000 -11.754300 -0.000006 -0.000006 -0.019112 -0.162318 -23.203100
0.000000 0.000000 0.000000 0.000000 0.000000 -0.000000 -6.449730 87.067100 46.035700 -90.517500 -1.692870 -178.427000 15.735700 0.000005 -0.000001 82.140200 82.649600 -83.827500 8.984550 -0.406207 -0.000000 6.772670 -1.989200 -3.253550 16.377300 -0.000001 -0.000001 -1.645380 -4.782170 -1.152240 6.456720 -0.000001 -0.000000 -4.434380 -6.674700 3.668210 12.994200 -0.242716 4.980390 -90.570600 1.581390 -70.182500 5.348090 -0.000007 -0.000001 -64.166700 29.748900 -33.921100 24.328600 0.000019 0.000005 17.268200 -2.249660 -97.214000 22.291600 -0.000001 0.000005 1.040810 5.503870 -6.689400 12.994500 -0.242716 -4.980390 87.909500 9.437300 -77.442200 -5.348130 -0.000001 -0.000004 -60.787200 31.186600 14.254900 -24.328900 0.000322 -0.000009 -12.603000 -6.521620 -63.071600 -22.291500 -0.000108 -0.000004 17.906600 5.671950 -17.702900 -2.192480 -6.469440 -0.000000 178.550000 -7.792270 -19.227300 39.081100 -0.000007 -0.000012 -0.066954 0.061825 47.282100 40.985400 -0.000006 -0.000013 5.509510 6.456600 -77.297300 11.754300 -0.000000 0.000003 -0.000063 -0.000689 -16.604200 -2.192510 6.469440 -0.000001 172.656000 7.704580 163.793000 -39.081100 -0.002282 -0.040193 0.267162 -0.062899 76.607500 -40.985400 0.000008 0.000006 4.619190 4.515730 -35.611400 -11.754300 -0.000006 -0.000006 -0.018573 -0.159256 -23.077100
0.000000 0.000000 0.000000 0.000000 0.000000 -0.000000 -5.894570 89.692800 40.999900 -88.993400 -5.240730 -178.058000 15.735700 0.000005 -0.000001 65.540300 81.869100 -66.389200 8.984550 -0.406207 -0.000000 7.023570 -6.704440 -1.285500 16.377300 -0.000001 -0.000001 -1.521040 -4.235620 -1.406890 6.456720 -0.000001 -0.000000 -4.751210 -2.605130 2.813620 12.994200 -0.242716 4.980390 -89.262800 -2.175710 -71.268700 5.348090 -0.000007 -0.000001 -56.050300 31.777500 -48.049300 24.328600 0.000019 0.000005 14.396700 -4.133380 -105.692000 22.291600 -0.000001 0.000005 -0.610182 5.500960 -6.568170 12.994500 -0.242716 -4.980390 88.375000 5.929260 -74.630300 -5.348130 -0.000001 -0.000004 -57.218200 34.408000 20.303400 -24.328900 0.000322 -0.000009 -12.165100 -4.647820 -69.397600 -22.291500 -0.000108 -0.000004 16.094700 5.668940 -17.206600 -2.192480 -6.469440 -0.000000 -178.602000 -5.850880 -9.560650 39.081100 -0.000007 -0.000012 -0.062362 0.086560 35.771400 40.985400 -0.000006 -0.000013 4.790330 8.847780 -75.194200 11.754300 -0.000000 0.000003 -0.000004 -0.000060 -16.579900 -2.192510 6.469440 -0.000001 176.943000 8.766080 159.160000 -39.081100 -0.002282 -0.040193 0.200253 -0.056488 74.016000 -40.985400 0.000008 0.000006 4.723830 -0.796081 -42.773000 -11.754300 -0.000006 -0.000006 -0.018586 -0.159325 -23.080000
0.000000 0.000000 0.000000 0.000000 0.000000 -0.000000 -5.204570 91.823000 36.628700 -86.525100 -8.250040 179.410000 15.735700 0.000005 -0.000001 52.144300 81.838000 -51.673200 8.984550 -0.406207 -0.000000 5.227430 -10.006800 1.400960 16.377300 -0.000001 -0.000001 -0.883045 -4.179180 -1.161600 6.456720 -0.000001 -0.000000 -4.709200 -0.174198 2.917670 12.994200 -0.242716 4.980390 -87.948100 -6.277930 -71.857200 5.348090 -0.000007 -0.000001 -51.142300 30.995500 -58.800400 24.328600 0.000019 0.000005 12.298100 -5.024490 -111.893000 22.291600 -0.000001 0.000005 -1.353850 5.482950 -5.861050 12.994500 -0.242716 -4.980390 89.650400 1.090790 -72.159400 -5.348130 -0.000001 -0.000004 -55.467900 35.445400 26.031800 -24.328900 0.000322 -0.000009 -12.067200 -3.304180 -74.912100 -22.291500 -0.000108 -0.000004 15.296000 5.663980 -16.536600 -2.192480 -6.469440 -0.000000 -175.200000 -4.671110 -4.809190 39.081100 -0.000007 -0.000012 -0.002106 0.004440 25.371400 40.985400 -0.000006 -0.000013 4.651500 10.814200 -70.329300 11.754300 -0.000000 0.000003 -0.546359 -0.672224 -18.378100 -2.192510 6.469440 -0.000001 -177.747000 9.872650 152.411000 -39.081100 -0.002282 -0.040193 0.138957 -0.057369 67.100200 -40.985400 0.000008 0.000006 6.017770 -4.268600 -47.816300 -11.754300 -0.000006 -0.000006 -0.020174 -0.168248 -23.447400
